# xmcd
#
# Track frame offsets:
#	150
#	24347
#	44222
#	51052
#	70627
#	91007
#	112352
#	125942
#	147235
#	153932
#	191777
#	221362
#
# Disc length: 3256 seconds
#
# Revision: 8
# Processed by: cddbd v1.5.2PL0 Copyright (c) Steve Scherf et al.
# Submitted via: EasyCDDAExtractor 15.3.0.1
#
DISCID=b10cb60c
DTITLE=Lissette - ¡En Vivo! - CD 1
DYEAR=2001
DGENRE=Latin
TTITLE0=Trampas De Luz
TTITLE1=Amor De Luna
TTITLE2=Introduccion
TTITLE3=Cuando Me Faltas
TTITLE4=Campo De Batalla
TTITLE5=Yo Me Voy Sola
TTITLE6=Amantes Por Atraccion
TTITLE7=A Veces
TTITLE8=Dialogo
TTITLE9=Medley De Exitos I (Falsedad, Quiereme, Martes 2 De La Tarde, Debut Y 
TTITLE9=Despedida, Justo Yo, Copacabana)
TTITLE10=Medley De Baladas (Vivo, Como Decirte, Fuego)
TTITLE11=Luna Llena
EXTD=YEAR: 2001 ID3G:  98
EXTT0=
EXTT1=
EXTT2=
EXTT3=
EXTT4=
EXTT5=
EXTT6=
EXTT7=
EXTT8=
EXTT9=
EXTT10=
EXTT11=
PLAYORDER=
